<mxfile host="65bd71144e" scale="4" border="0">
    <diagram id="LJ5IbmfqhEtu6rFGyl5s" name="Page-1">
        <mxGraphModel dx="648" dy="355" grid="1" gridSize="10" guides="1" tooltips="1" connect="1" arrows="1" fold="1" page="1" pageScale="1" pageWidth="827" pageHeight="1169" math="0" shadow="0">
            <root>
                <mxCell id="0"/>
                <mxCell id="1" parent="0"/>
                <mxCell id="2" value="Afficher &quot;Le nombre est &quot;" style="rounded=1;whiteSpace=wrap;html=1;strokeWidth=2;fillWeight=4;hachureGap=8;hachureAngle=45;fillColor=#1ba1e2;sketch=1;labelBackgroundColor=#ffffff;fontFamily=Courier New;labelBorderColor=none;fontStyle=1;container=0;" parent="1" vertex="1">
                    <mxGeometry x="360" y="20" width="160" height="60" as="geometry"/>
                </mxCell>
                <mxCell id="7" value="Afficher &quot;nÃ©gatif ou nul &quot;" style="rounded=1;whiteSpace=wrap;html=1;strokeWidth=2;fillWeight=4;hachureGap=8;hachureAngle=45;fillColor=#d5e8d4;sketch=1;labelBackgroundColor=#ffffff;fontFamily=Courier New;labelBorderColor=none;fontStyle=1;strokeColor=#82b366;container=0;" parent="1" vertex="1">
                    <mxGeometry x="480" y="140" width="130" height="60" as="geometry"/>
                </mxCell>
                <mxCell id="9" value="Afficher &quot;positif &quot;" style="rounded=1;whiteSpace=wrap;html=1;strokeWidth=2;fillWeight=4;hachureGap=8;hachureAngle=45;fillColor=#d5e8d4;sketch=1;labelBackgroundColor=#ffffff;fontFamily=Courier New;labelBorderColor=none;fontStyle=1;strokeColor=#82b366;container=0;" parent="1" vertex="1">
                    <mxGeometry x="250" y="140" width="150" height="60" as="geometry"/>
                </mxCell>
                <mxCell id="14" value="Afficher &quot;Fin du programme&quot;" style="rounded=1;whiteSpace=wrap;html=1;strokeWidth=2;fillWeight=4;hachureGap=8;hachureAngle=45;fillColor=#1ba1e2;sketch=1;labelBackgroundColor=#ffffff;fontFamily=Courier New;labelBorderColor=none;fontStyle=1;container=0;" parent="1" vertex="1">
                    <mxGeometry x="375" y="260" width="130" height="60" as="geometry"/>
                </mxCell>
                <mxCell id="22" style="edgeStyle=orthogonalEdgeStyle;rounded=0;orthogonalLoop=1;jettySize=auto;html=1;entryX=0.5;entryY=0;entryDx=0;entryDy=0;exitX=0.25;exitY=1;exitDx=0;exitDy=0;curved=1;strokeWidth=3;sketch=1;" edge="1" parent="1" source="2" target="9">
                    <mxGeometry x="200" y="60" as="geometry"/>
                </mxCell>
                <mxCell id="26" value="&amp;nbsp;n &amp;gt; 0" style="edgeLabel;html=1;align=center;verticalAlign=middle;resizable=0;points=[];fontFamily=Courier New;fontStyle=1;fontSize=14;labelBackgroundColor=#ffffff;labelBorderColor=#000000;container=0;" vertex="1" connectable="0" parent="22">
                    <mxGeometry x="-0.1321" y="1" relative="1" as="geometry">
                        <mxPoint x="3" y="-1" as="offset"/>
                    </mxGeometry>
                </mxCell>
                <mxCell id="23" style="edgeStyle=orthogonalEdgeStyle;rounded=0;orthogonalLoop=1;jettySize=auto;html=1;entryX=0.5;entryY=0;entryDx=0;entryDy=0;exitX=0.75;exitY=1;exitDx=0;exitDy=0;curved=1;strokeWidth=3;sketch=1;" edge="1" parent="1" source="2" target="7">
                    <mxGeometry x="200" y="60" as="geometry"/>
                </mxCell>
                <mxCell id="27" value="&amp;nbsp;sinon&amp;nbsp;" style="edgeLabel;html=1;align=center;verticalAlign=middle;resizable=0;points=[];fontSize=14;fontFamily=Courier New;labelBorderColor=#000000;fontStyle=1;container=0;" vertex="1" connectable="0" parent="23">
                    <mxGeometry x="-0.1453" y="1" relative="1" as="geometry">
                        <mxPoint x="1" as="offset"/>
                    </mxGeometry>
                </mxCell>
                <mxCell id="25" style="edgeStyle=orthogonalEdgeStyle;rounded=0;orthogonalLoop=1;jettySize=auto;html=1;entryX=0.75;entryY=0;entryDx=0;entryDy=0;curved=1;strokeWidth=3;sketch=1;" edge="1" parent="1" source="7" target="14">
                    <mxGeometry x="200" y="60" as="geometry"/>
                </mxCell>
                <mxCell id="24" style="edgeStyle=orthogonalEdgeStyle;rounded=0;orthogonalLoop=1;jettySize=auto;html=1;entryX=0.25;entryY=0;entryDx=0;entryDy=0;curved=1;strokeWidth=3;sketch=1;" edge="1" parent="1" source="9" target="14">
                    <mxGeometry x="200" y="60" as="geometry"/>
                </mxCell>
            </root>
        </mxGraphModel>
    </diagram>
</mxfile>